Coordinates
version=1
nRows=7
nColumns=42
inDegrees=yes

Units are S.I. units (second, meters, Newtons, ...)
If the header above contains a line with 'inDegrees', this indicates whether rotational values are in degrees (yes) or radians (no).

endheader
time	pelvis_tilt	pelvis_list	pelvis_rotation	pelvis_tx	pelvis_ty	pelvis_tz	hip_flexion_r	hip_adduction_r	hip_rotation_r	knee_angle_r	knee_adduction_r	knee_angle_r_beta	ankle_angle_r	subtalar_angle_r	mtp_angle_r	hip_flexion_l	hip_adduction_l	hip_rotation_l	knee_angle_l	knee_adduction_l	knee_angle_l_beta	ankle_angle_l	subtalar_angle_l	mtp_angle_l	lumbar_extension	lumbar_bending	lumbar_rotation	arm_flex_r	arm_add_r	arm_rot_r	elbow_flex_r	pro_sup_r	wrist_flex_r	wrist_dev_r	arm_flex_l	arm_add_l	arm_rot_l	elbow_flex_l	pro_sup_l	wrist_flex_l	wrist_dev_l
      0.94000000	      4.07938683	      1.66799872	      0.62131088	     -0.93942588	      0.86762397	     -0.16129700	     -0.08380901	     -3.79136322	    -24.09389693	     36.86223559	     -6.55337060	      0.64336738	     23.52448570	     37.00354020	     -9.53644930	     23.57377446	      2.91102970	    -12.79678592	     34.34029568	     -8.35890339	      0.59935123	      9.91525028	     18.61184948	     -9.53644930	    -25.44233495	     -1.10725626	     -2.66407924	     10.60310972	    -11.94034973	     -5.57928737	     45.80540478	     90.00000001	      0.00000000	      0.00000000	     12.07225826	    -11.98418467	     21.95499801	     50.81185816	     90.00000001	      0.00000000	      0.00000000
      0.95000000	      4.01837149	      1.61411767	      0.54913371	     -0.93546685	      0.86749502	     -0.16231629	     -0.17965101	     -3.75818542	    -23.72635776	     37.06477917	     -6.54173125	      0.64690243	     23.34481227	     36.71778427	     -9.50864644	     23.48990235	      2.92702987	    -13.41117954	     34.50403966	     -8.65216188	      0.60220910	     10.22892112	     18.41475316	     -9.50864644	    -25.37815020	     -1.10922175	     -2.59505125	     10.47686413	    -12.03161582	     -5.71857912	     46.30872412	     90.00000001	      0.00000000	      0.00000000	     12.02961665	    -12.03198938	     22.19456258	     50.96700959	     90.00000001	      0.00000000	      0.00000000
      0.96000000	      3.95284536	      1.55773437	      0.56326262	     -0.93145707	      0.86746133	     -0.16336503	     -0.26365253	     -3.70399860	    -23.60188785	     37.24894789	     -6.67007588	      0.65011678	     23.27596009	     36.66248098	     -9.50386660	     23.34524478	      2.97604142	    -13.52407348	     34.61858807	     -8.75049057	      0.60420834	     10.28359495	     18.41485940	     -9.50386660	    -25.30220413	     -1.10974000	     -2.61017555	     10.43939854	    -12.08752549	     -5.75846497	     46.38318622	     90.00000001	      0.00000000	      0.00000000	     12.00760732	    -12.02409163	     22.23335428	     50.97460450	     90.00000001	      0.00000000	      0.00000000
      0.97000000	      3.90337635	      1.54694735	      0.47248893	     -0.92741721	      0.86738221	     -0.16441111	     -0.27866466	     -3.79553275	    -23.37984100	     37.67544273	     -6.69806798	      0.65756052	     22.90972099	     36.35348424	     -9.48453755	     23.27308042	      2.97533025	    -14.17461833	     34.89318472	     -9.02330048	      0.60900096	     10.68757501	     18.43531263	     -9.48453755	    -25.25239752	     -1.17529624	     -2.45146583	     10.33456883	    -12.17288521	     -5.90545828	     46.78516994	     90.00000001	      0.00000000	      0.00000000	     12.07452461	    -12.01700987	     22.36202955	     51.02010564	     90.00000001	      0.00000000	      0.00000000
      0.98000000	      3.84790912	      1.50696357	      0.46547224	     -0.92325463	      0.86747658	     -0.16544534	     -0.34808579	     -3.74852452	    -23.18505857	     37.89165745	     -6.83532029	      0.66133418	     22.78946241	     36.27675830	     -9.47943850	     23.10305990	      3.04708168	    -14.17200892	     35.05030602	     -9.14664648	      0.61174324	     10.76854830	     18.49488125	     -9.47943850	    -25.18531452	     -1.21646661	     -2.48570799	     10.19569490	    -12.20784269	     -5.95920784	     46.86426375	     90.00000001	      0.00000000	      0.00000000	     12.05340366	    -12.00874702	     22.39923506	     51.01103023	     90.00000001	      0.00000000	      0.00000000
      0.99000000	      3.72070710	      1.48914249	      0.37115710	     -0.91914536	      0.86748609	     -0.16649507	     -0.26140361	     -3.83018975	    -22.60281401	     38.36286457	     -6.64745702	      0.66955830	     21.91574097	     35.41640497	     -9.42513651	     23.05924987	      3.05278748	    -14.44937413	     35.29820259	     -9.28893051	      0.61606986	     11.50563255	     18.88133026	     -9.42513651	    -25.05842596	     -1.28315984	     -2.25627126	      9.69280019	    -12.27980563	     -6.44467467	     48.03459111	     90.00000001	      0.00000000	      0.00000000	     12.21902623	    -11.98887339	     22.75870819	     50.93827710	     90.00000001	      0.00000000	      0.00000000
      1.00000000	      3.71498343	      1.46068325	      0.39249852	     -0.91489543	      0.86772555	     -0.16754215	     -0.35419531	     -3.82452801	    -22.41210643	     38.68096546	     -6.75779247	      0.67511021	     21.81845330	     35.35060039	     -9.41976662	     22.83046963	      3.10701274	    -14.32329885	     35.49064337	     -9.31186330	      0.61942858	     11.53771059	     18.91979365	     -9.41976662	    -25.04640266	     -1.34071997	     -2.29583439	      9.54122234	    -12.30114367	     -6.49852240	     48.07186810	     90.00000001	      0.00000000	      0.00000000	     12.24323688	    -11.99489288	     22.78488298	     50.92320238	     90.00000001	      0.00000000	      0.00000000
